<?xml version="1.0" encoding="UTF-8" standalone="no"?>
<!-- Created with Inkscape (http://www.inkscape.org/) -->

<svg
   width="16"
   height="16"
   viewBox="0 0 16 16"
   version="1.1"
   id="svg1"
   xmlns:xlink="http://www.w3.org/1999/xlink"
   xmlns="http://www.w3.org/2000/svg"
   xmlns:svg="http://www.w3.org/2000/svg"
   xmlns:rdf="http://www.w3.org/1999/02/22-rdf-syntax-ns#"
   xmlns:cc="http://creativecommons.org/ns#">
  <defs
     id="defs1">
    <linearGradient
       id="swatch44"
       gradientTransform="translate(-416,240)">
      <stop
         style="stop-color:#ffffff;stop-opacity:1;"
         offset="0"
         id="stop44" />
    </linearGradient>
    <linearGradient
       id="swatch43"
       gradientTransform="translate(-416,240)">
      <stop
         style="stop-color:#bbbbcc;stop-opacity:1;"
         offset="0"
         id="stop43" />
    </linearGradient>
    <linearGradient
       id="swatch42"
       gradientTransform="translate(-858,504)">
      <stop
         style="stop-color:#eeddee;stop-opacity:1;"
         offset="0"
         id="stop42" />
    </linearGradient>
    <linearGradient
       id="swatch41"
       gradientTransform="translate(-332,240)">
      <stop
         style="stop-color:#bbeecc;stop-opacity:1;"
         offset="0"
         id="stop41" />
    </linearGradient>
    <linearGradient
       id="swatch39"
       gradientTransform="translate(-332,240)">
      <stop
         style="stop-color:#558888;stop-opacity:1;"
         offset="0"
         id="stop39" />
    </linearGradient>
    <linearGradient
       id="swatch38"
       gradientTransform="translate(-818,600)">
      <stop
         style="stop-color:#88ccaa;stop-opacity:1;"
         offset="0"
         id="stop38" />
    </linearGradient>
    <linearGradient
       id="swatch13"
       gradientTransform="rotate(-45,220.82338,352.80613)">
      <stop
         style="stop-color:#bbbbee;stop-opacity:1;"
         offset="0"
         id="stop13" />
    </linearGradient>
    <linearGradient
       id="swatch11"
       gradientTransform="matrix(0.87499938,0,0,0.87499939,-753.74995,577)">
      <stop
         style="stop-color:#000000;stop-opacity:1;"
         offset="0"
         id="stop11" />
    </linearGradient>
    <linearGradient
       id="swatch10"
       gradientTransform="rotate(0.198281,-77983.992,-45199.271)">
      <stop
         style="stop-color:#444466;stop-opacity:1;"
         offset="0"
         id="stop10" />
    </linearGradient>
    <linearGradient
       id="swatch9"
       gradientTransform="matrix(-0.69758968,0,0,-0.69764576,-1240.8076,1213.5694)">
      <stop
         style="stop-color:#9999cc;stop-opacity:1;"
         offset="0"
         id="stop9" />
    </linearGradient>
    <linearGradient
       xlink:href="#swatch10"
       id="linearGradient33"
       gradientTransform="matrix(0.85964851,0,0,0.85964815,11.508824,1.1228119)"
       gradientUnits="userSpaceOnUse" />
    <linearGradient
       xlink:href="#swatch13"
       id="linearGradient34"
       gradientUnits="userSpaceOnUse"
       gradientTransform="matrix(0.86556185,0,0,0.86563321,11.04015,1.0892637)" />
    <clipPath
       clipPathUnits="userSpaceOnUse"
       id="clipPath41">
      <path
         d="M 82,2 C 81.299526,2.00278 80.62149,2.4767638 80.082794,3.3722524 79.434822,3.2111948 78.405559,3.099682 77.75,3.75 c -0.493149,0.4971207 -0.629699,1.3191313 -0.377743,2.3327887 -0.895489,0.5386951 -1.387003,1.2167329 -1.389794,1.9172084 0.0029,0.7004754 0.494305,1.3785134 1.389794,1.9172079 -0.251956,1.013659 -0.115406,1.835674 0.377743,2.332795 0.497121,0.493147 1.319136,0.629697 2.332794,0.377742 C 80.62149,13.523231 81.299526,13.997209 82,14 82.700475,13.9971 83.378517,13.523231 83.917213,12.627742 84.930871,12.879697 85.75288,12.743147 86.25,12.25 86.746282,11.753579 86.884435,10.93029 86.632158,9.914267 87.524773,9.3760466 87.997082,8.6991928 88,8.0000001 87.999544,7.2993836 87.527644,6.6208079 86.633626,6.0813194 86.884387,5.0671847 86.745737,4.245592 86.25,3.75 85.75337,3.2581513 84.933089,3.1216237 83.921619,3.3722524 83.38176,2.4748324 82.70199,2.0007375 82,2 Z"
         style="display:none;fill:url(#swatch9);fill-opacity:1;stroke:none;stroke-width:2;stroke-miterlimit:100;stroke-dasharray:none;paint-order:markers stroke fill"
         id="path41" />
      <path
         id="lpe_path-effect41"
         style="display:inline;fill:url(#swatch9);fill-opacity:1;stroke:none;stroke-width:2;stroke-miterlimit:100;stroke-dasharray:none;paint-order:markers stroke fill"
         class="powerclip"
         d="M 69.982455,-4.0000021 H 94.000001 V 20.000008 H 69.982455 Z M 82,2 C 81.299526,2.00278 80.62149,2.4767638 80.082794,3.3722524 79.434822,3.2111948 78.405559,3.099682 77.75,3.75 c -0.493149,0.4971207 -0.629699,1.3191313 -0.377743,2.3327887 -0.895489,0.5386951 -1.387003,1.2167329 -1.389794,1.9172084 0.0029,0.7004754 0.494305,1.3785134 1.389794,1.9172079 -0.251956,1.013659 -0.115406,1.835674 0.377743,2.332795 0.497121,0.493147 1.319136,0.629697 2.332794,0.377742 C 80.62149,13.523231 81.299526,13.997209 82,14 82.700475,13.9971 83.378517,13.523231 83.917213,12.627742 84.930871,12.879697 85.75288,12.743147 86.25,12.25 86.746282,11.753579 86.884435,10.93029 86.632158,9.914267 87.524773,9.3760466 87.997082,8.6991928 88,8.0000001 87.999544,7.2993836 87.527644,6.6208079 86.633626,6.0813194 86.884387,5.0671847 86.745737,4.245592 86.25,3.75 85.75337,3.2581513 84.933089,3.1216237 83.921619,3.3722524 83.38176,2.4748324 82.70199,2.0007375 82,2 Z" />
    </clipPath>
    <clipPath
       clipPathUnits="userSpaceOnUse"
       id="clipath_lpe_path-effect101">
      <path
         d="M 82,2 C 81.299526,2.00278 80.62149,2.4767638 80.082794,3.3722524 79.434822,3.2111948 78.405559,3.099682 77.75,3.75 c -0.493149,0.4971207 -0.629699,1.3191313 -0.377743,2.3327887 -0.895489,0.5386951 -1.387003,1.2167329 -1.389794,1.9172084 0.0029,0.7004754 0.494305,1.3785134 1.389794,1.9172079 -0.251956,1.013659 -0.115406,1.835674 0.377743,2.332795 0.497121,0.493147 1.319136,0.629697 2.332794,0.377742 C 80.62149,13.523231 81.299526,13.997209 82,14 82.700475,13.9971 83.378517,13.523231 83.917213,12.627742 84.930871,12.879697 85.75288,12.743147 86.25,12.25 86.746282,11.753579 86.884435,10.93029 86.632158,9.914267 87.524773,9.3760466 87.997082,8.6991928 88,8.0000001 87.999544,7.2993836 87.527644,6.6208079 86.633626,6.0813194 86.884387,5.0671847 86.745737,4.245592 86.25,3.75 85.75337,3.2581513 84.933089,3.1216237 83.921619,3.3722524 83.38176,2.4748324 82.70199,2.0007375 82,2 Z"
         style="display:none;fill:url(#swatch9);fill-opacity:1;stroke:none;stroke-width:2;stroke-miterlimit:100;stroke-dasharray:none;paint-order:markers stroke fill"
         id="path101" />
      <path
         id="lpe_path-effect101"
         style="display:inline;fill:url(#swatch9);fill-opacity:1;stroke:none;stroke-width:2;stroke-miterlimit:100;stroke-dasharray:none;paint-order:markers stroke fill"
         class="powerclip"
         d="M 69.982455,-4.0000021 H 94.000001 V 20.000008 H 69.982455 Z M 82,2 C 81.299526,2.00278 80.62149,2.4767638 80.082794,3.3722524 79.434822,3.2111948 78.405559,3.099682 77.75,3.75 c -0.493149,0.4971207 -0.629699,1.3191313 -0.377743,2.3327887 -0.895489,0.5386951 -1.387003,1.2167329 -1.389794,1.9172084 0.0029,0.7004754 0.494305,1.3785134 1.389794,1.9172079 -0.251956,1.013659 -0.115406,1.835674 0.377743,2.332795 0.497121,0.493147 1.319136,0.629697 2.332794,0.377742 C 80.62149,13.523231 81.299526,13.997209 82,14 82.700475,13.9971 83.378517,13.523231 83.917213,12.627742 84.930871,12.879697 85.75288,12.743147 86.25,12.25 86.746282,11.753579 86.884435,10.93029 86.632158,9.914267 87.524773,9.3760466 87.997082,8.6991928 88,8.0000001 87.999544,7.2993836 87.527644,6.6208079 86.633626,6.0813194 86.884387,5.0671847 86.745737,4.245592 86.25,3.75 85.75337,3.2581513 84.933089,3.1216237 83.921619,3.3722524 83.38176,2.4748324 82.70199,2.0007375 82,2 Z" />
    </clipPath>
    <linearGradient
       xlink:href="#swatch10"
       id="linearGradient161"
       gradientUnits="userSpaceOnUse"
       gradientTransform="matrix(0.85964852,0,0,0.85964813,-62.491177,73.122812)" />
    <linearGradient
       xlink:href="#swatch13"
       id="linearGradient162"
       gradientUnits="userSpaceOnUse"
       gradientTransform="matrix(0.86556185,0,0,0.86563321,-62.95985,73.089264)" />
    <linearGradient
       xlink:href="#swatch10"
       id="linearGradient163"
       gradientUnits="userSpaceOnUse"
       gradientTransform="matrix(0.85964851,0,0,0.85964815,-62.491176,73.122812)" />
    <linearGradient
       xlink:href="#swatch13"
       id="linearGradient164"
       gradientUnits="userSpaceOnUse"
       gradientTransform="matrix(0.86556185,0,0,0.86563321,-62.95985,73.089264)" />
    <linearGradient
       xlink:href="#swatch10"
       id="linearGradient2"
       gradientUnits="userSpaceOnUse"
       gradientTransform="matrix(0.85964851,0,0,0.85964815,11.508824,1.1228119)" />
    <linearGradient
       xlink:href="#swatch13"
       id="linearGradient3"
       gradientUnits="userSpaceOnUse"
       gradientTransform="matrix(0.86556185,0,0,0.86563321,11.04015,1.0892637)" />
  </defs>
  <metadata
     id="metadata1">
    <rdf:RDF>
      <cc:License
         rdf:about="http://creativecommons.org/licenses/by/4.0/">
        <cc:permits
           rdf:resource="http://creativecommons.org/ns#Reproduction" />
        <cc:permits
           rdf:resource="http://creativecommons.org/ns#Distribution" />
        <cc:requires
           rdf:resource="http://creativecommons.org/ns#Notice" />
        <cc:requires
           rdf:resource="http://creativecommons.org/ns#Attribution" />
        <cc:permits
           rdf:resource="http://creativecommons.org/ns#DerivativeWorks" />
      </cc:License>
      <cc:Work
         rdf:about="">
        <cc:license
           rdf:resource="http://creativecommons.org/licenses/by/4.0/" />
      </cc:Work>
    </rdf:RDF>
  </metadata>
  <g
     id="layer4"
     transform="translate(0,-72)">
    <path
       d="M 8,73 C 7.185161,73.0032 6.396421,73.575007 5.769776,74.616699 5.364441,74.515949 4.985609,74.467715 4.638427,74.471436 3.975629,74.478536 3.430281,74.674316 3.050782,75.050781 2.477119,75.629065 2.323609,76.590622 2.616699,77.769775 1.575007,78.396422 1.003247,79.18516 1,80 c 0.0033,0.81484 0.575007,1.603579 1.616699,2.230224 -0.29309,1.179154 -0.13958,2.14071 0.434083,2.718994 0.578284,0.573663 1.53984,0.727173 2.718994,0.434083 C 6.396421,86.424993 7.185161,86.996753 8,87 c 0.814839,-0.0033 1.603579,-0.575007 2.230224,-1.616699 1.179154,0.29309 2.14071,0.13958 2.718994,-0.434083 0.577308,-0.577468 0.732675,-1.540505 0.439209,-2.722412 C 14.426777,81.600712 14.996605,80.813348 15,80 14.99947,79.184996 14.430115,78.395635 13.390136,77.768066 13.681838,76.588357 13.525891,75.627287 12.949218,75.050781 12.371505,74.47863 11.41196,74.325151 10.235351,74.616699 9.607349,73.57276 8.816601,73.000858 8,73 Z"
       style="display:inline;fill:url(#swatch9);fill-opacity:1;stroke:url(#swatch11);stroke-width:2;stroke-miterlimit:100;stroke-dasharray:none;paint-order:markers stroke fill"
       id="path20" />
    <path
       style="display:none;fill:url(#swatch9);fill-opacity:1;stroke:none;stroke-width:2;stroke-miterlimit:100;stroke-dasharray:none;paint-order:markers stroke fill"
       d="M 0,88 16,72 v 16 z"
       id="path24" />
    <path
       d="m 7.9999999,74 c -0.700474,0.0028 -1.37851,0.476764 -1.917206,1.372252 -0.647972,-0.161057 -1.677235,-0.27257 -2.332794,0.377748 -0.493149,0.497121 -0.629699,1.319131 -0.377743,2.332789 -0.895489,0.538695 -1.387003,1.216732 -1.389794,1.917208 0.0029,0.700475 0.494305,1.378513 1.389794,1.917208 -0.251956,1.013659 -0.115406,1.835674 0.377743,2.332795 0.497121,0.493147 1.319136,0.629697 2.332794,0.377742 C 6.6214899,85.523231 7.2995259,85.997209 7.9999999,86 8.700475,85.9971 9.378517,85.523231 9.917213,84.627742 10.930871,84.879697 11.75288,84.743147 12.25,84.25 12.746282,83.753579 12.884435,82.93029 12.632158,81.914267 13.524773,81.376046 13.997082,80.699193 14,80 13.999544,79.299383 13.527644,78.620808 12.633626,78.081319 12.884387,77.067185 12.745737,76.245592 12.25,75.75 11.75337,75.258151 10.933089,75.121624 9.921619,75.372252 9.38176,74.474832 8.70199,74.000737 7.9999999,74 Z"
       style="display:inline;fill:url(#swatch9);fill-opacity:1;stroke:url(#linearGradient161);stroke-width:2;stroke-miterlimit:100;stroke-dasharray:none;paint-order:markers stroke fill"
       id="path33" />
    <path
       d="M 12.25,75.75 C 11.75,75.25 10.935455,75.124469 9.917028,75.376842 9.373453,74.473174 8.706819,74.000743 8,74 7.294707,74.00281 6.628493,74.452098 6.086091,75.353821 5.740047,75.267801 4.484546,75.021266 3.75,75.75 3.253457,76.250582 3.118569,77.062074 3.372257,78.082789 2.470608,78.625234 2.00281,79.294648 2,80 2.0029,80.705352 2.470607,81.37476 3.372257,81.917205 3.118569,82.93792 3.25,83.75 3.75,84.25"
       style="display:inline;fill:url(#swatch9);stroke:url(#linearGradient162);stroke-width:2;stroke-linecap:butt;stroke-linejoin:round;stroke-miterlimit:100;stroke-dasharray:none;paint-order:markers stroke fill"
       id="path34" />
    <path
       style="display:inline;fill:none;fill-opacity:1;stroke:url(#swatch10);stroke-width:1;stroke-linecap:butt;stroke-linejoin:miter;stroke-miterlimit:100;stroke-dasharray:none;paint-order:fill markers stroke"
       d="M 12.065864,84.772971 3.227029,75.934136"
       id="path35" />
    <path
       style="display:inline;fill:none;fill-opacity:1;stroke:url(#swatch13);stroke-width:1;stroke-linecap:butt;stroke-linejoin:miter;stroke-miterlimit:100;stroke-dasharray:none;paint-order:fill markers stroke"
       d="M 12.772971,84.065864 3.934136,75.227029"
       id="path36" />
    <g
       id="g40"
       clip-path="url(#clipPath41)"
       style="display:inline"
       transform="translate(-74,72)">
      <path
         d="M 82,2 C 81.299526,2.00278 80.62149,2.4767638 80.082794,3.3722524 79.434822,3.2111948 78.405559,3.099682 77.75,3.75 c -0.493149,0.4971207 -0.629699,1.3191313 -0.377743,2.3327887 -0.895489,0.5386951 -1.387003,1.2167329 -1.389794,1.9172084 0.0029,0.7004754 0.494305,1.3785134 1.389794,1.9172079 -0.251956,1.013659 -0.115406,1.835674 0.377743,2.332795 0.497121,0.493147 1.319136,0.629697 2.332794,0.377742 C 80.62149,13.523231 81.299526,13.997209 82,14 82.700475,13.9971 83.378517,13.523231 83.917213,12.627742 84.930871,12.879697 85.75288,12.743147 86.25,12.25 86.746282,11.753579 86.884435,10.93029 86.632158,9.914267 87.524773,9.3760466 87.997082,8.6991928 88,8.0000001 87.999544,7.2993836 87.527644,6.6208079 86.633626,6.0813194 86.884387,5.0671847 86.745737,4.245592 86.25,3.75 85.75337,3.2581513 84.933089,3.1216237 83.921619,3.3722524 83.38176,2.4748324 82.70199,2.0007375 82,2 Z"
         style="display:inline;fill:none;fill-opacity:1;stroke:url(#linearGradient2);stroke-width:2;stroke-miterlimit:100;stroke-dasharray:none;paint-order:markers stroke fill"
         id="path38" />
      <path
         d="M 86.25,3.75 C 85.75,3.25 84.935455,3.1244686 83.917028,3.3768422 83.373453,2.473174 82.706819,2.0007428 82,2 81.294707,2.00281 80.628493,2.452098 80.086091,3.3538212 79.740047,3.2678006 78.484546,3.0212656 77.75,3.75 77.253457,4.2505817 77.118569,5.0620739 77.372257,6.0827886 76.470608,6.6252343 76.00281,7.2946476 76,8 76.0029,8.7053522 76.470607,9.3747597 77.372257,9.9172048 77.118569,10.93792 77.25,11.75 77.75,12.25"
         style="display:inline;fill:none;stroke:url(#linearGradient3);stroke-width:2;stroke-linecap:butt;stroke-linejoin:round;stroke-miterlimit:100;stroke-dasharray:none;paint-order:markers stroke fill"
         id="path39" />
    </g>
  </g>
  <g
     id="g80"
     transform="translate(0,-72)">
    <path
       d="M 8,73 C 7.185161,73.0032 6.396421,73.575007 5.769776,74.616699 5.364441,74.515949 4.985609,74.467715 4.638427,74.471436 3.975629,74.478536 3.430281,74.674316 3.050782,75.050781 2.477119,75.629065 2.323609,76.590622 2.616699,77.769775 1.575007,78.396422 1.003247,79.18516 1,80 c 0.0033,0.81484 0.575007,1.603579 1.616699,2.230224 -0.29309,1.179154 -0.13958,2.14071 0.434083,2.718994 0.578284,0.573663 1.53984,0.727173 2.718994,0.434083 C 6.396421,86.424993 7.185161,86.996753 8,87 c 0.814839,-0.0033 1.603579,-0.575007 2.230224,-1.616699 1.179154,0.29309 2.14071,0.13958 2.718994,-0.434083 0.577308,-0.577468 0.732675,-1.540505 0.439209,-2.722412 C 14.426777,81.600712 14.996605,80.813348 15,80 14.99947,79.184996 14.430115,78.395635 13.390136,77.768066 13.681838,76.588357 13.525891,75.627287 12.949218,75.050781 12.371505,74.47863 11.41196,74.325151 10.235351,74.616699 9.607349,73.57276 8.816601,73.000858 8,73 Z"
       style="display:inline;fill:url(#swatch9);fill-opacity:1;stroke:url(#swatch11);stroke-width:2;stroke-miterlimit:100;stroke-dasharray:none;paint-order:markers stroke fill"
       id="path69" />
    <path
       style="display:none;fill:url(#swatch9);fill-opacity:1;stroke:none;stroke-width:2;stroke-miterlimit:100;stroke-dasharray:none;paint-order:markers stroke fill"
       d="M 0,88 16,72 v 16 z"
       id="path70" />
    <path
       d="M 8,74 C 7.299526,74.00278 6.62149,74.476764 6.082794,75.372252 5.434822,75.211195 4.405559,75.099682 3.75,75.75 c -0.493149,0.497121 -0.629699,1.319131 -0.377743,2.332789 -0.895489,0.538695 -1.387003,1.216733 -1.389794,1.917208 0.0029,0.700476 0.494305,1.378514 1.389794,1.917208 C 3.120301,82.930864 3.256851,83.752879 3.75,84.25 4.247121,84.743147 5.069136,84.879697 6.082794,84.627742 6.62149,85.523231 7.299526,85.997209 8,86 8.700475,85.9971 9.378517,85.523231 9.917213,84.627742 10.930871,84.879697 11.75288,84.743147 12.25,84.25 12.746282,83.753579 12.884435,82.93029 12.632158,81.914267 13.524773,81.376047 13.997082,80.699193 14,80 13.999544,79.299384 13.527644,78.620808 12.633626,78.081319 12.884387,77.067185 12.745737,76.245592 12.25,75.75 11.75337,75.258151 10.933089,75.121624 9.921619,75.372252 9.38176,74.474832 8.70199,74.000737 8,74 Z"
       style="display:inline;fill:url(#swatch9);fill-opacity:1;stroke:url(#linearGradient163);stroke-width:2;stroke-miterlimit:100;stroke-dasharray:none;paint-order:markers stroke fill"
       id="path71" />
    <path
       d="M 12.25,75.75 C 11.75,75.25 10.935455,75.124469 9.917028,75.376842 9.373453,74.473174 8.706819,74.000743 8,74 7.294707,74.00281 6.628493,74.452098 6.086091,75.353821 5.740047,75.267801 4.484546,75.021266 3.75,75.75 3.253457,76.250582 3.118569,77.062074 3.372257,78.082789 2.470608,78.625234 2.00281,79.294648 2,80 2.0029,80.705352 2.470607,81.37476 3.372257,81.917205 3.118569,82.93792 3.25,83.75 3.75,84.25"
       style="display:inline;fill:url(#swatch9);stroke:url(#linearGradient164);stroke-width:2;stroke-linecap:butt;stroke-linejoin:round;stroke-miterlimit:100;stroke-dasharray:none;paint-order:markers stroke fill"
       id="path72" />
    <path
       style="display:inline;fill:none;fill-opacity:1;stroke:url(#swatch10);stroke-width:1;stroke-linecap:butt;stroke-linejoin:miter;stroke-miterlimit:100;stroke-dasharray:none;paint-order:fill markers stroke"
       d="M 12.065864,84.772971 3.227029,75.934136"
       id="path74" />
    <path
       style="display:inline;fill:none;fill-opacity:1;stroke:url(#swatch13);stroke-width:1;stroke-linecap:butt;stroke-linejoin:miter;stroke-miterlimit:100;stroke-dasharray:none;paint-order:fill markers stroke"
       d="M 12.772971,84.065864 3.934136,75.227029"
       id="path75" />
    <g
       id="g79"
       clip-path="url(#clipath_lpe_path-effect101)"
       style="display:inline"
       transform="translate(-74,72)">
      <path
         d="M 82,2 C 81.299526,2.00278 80.62149,2.4767638 80.082794,3.3722524 79.434822,3.2111948 78.405559,3.099682 77.75,3.75 c -0.493149,0.4971207 -0.629699,1.3191313 -0.377743,2.3327887 -0.895489,0.5386951 -1.387003,1.2167329 -1.389794,1.9172084 0.0029,0.7004754 0.494305,1.3785134 1.389794,1.9172079 -0.251956,1.013659 -0.115406,1.835674 0.377743,2.332795 0.497121,0.493147 1.319136,0.629697 2.332794,0.377742 C 80.62149,13.523231 81.299526,13.997209 82,14 82.700475,13.9971 83.378517,13.523231 83.917213,12.627742 84.930871,12.879697 85.75288,12.743147 86.25,12.25 86.746282,11.753579 86.884435,10.93029 86.632158,9.914267 87.524773,9.3760466 87.997082,8.6991928 88,8.0000001 87.999544,7.2993836 87.527644,6.6208079 86.633626,6.0813194 86.884387,5.0671847 86.745737,4.245592 86.25,3.75 85.75337,3.2581513 84.933089,3.1216237 83.921619,3.3722524 83.38176,2.4748324 82.70199,2.0007375 82,2 Z"
         style="display:inline;fill:none;fill-opacity:1;stroke:url(#linearGradient33);stroke-width:2;stroke-miterlimit:100;stroke-dasharray:none;paint-order:markers stroke fill"
         id="path76" />
      <path
         d="M 86.25,3.75 C 85.75,3.25 84.935455,3.1244686 83.917028,3.3768422 83.373453,2.473174 82.706819,2.0007428 82,2 81.294707,2.00281 80.628493,2.452098 80.086091,3.3538212 79.740047,3.2678006 78.484546,3.0212656 77.75,3.75 77.253457,4.2505817 77.118569,5.0620739 77.372257,6.0827886 76.470608,6.6252343 76.00281,7.2946476 76,8 76.0029,8.7053522 76.470607,9.3747597 77.372257,9.9172048 77.118569,10.93792 77.25,11.75 77.75,12.25"
         style="display:inline;fill:none;stroke:url(#linearGradient34);stroke-width:2;stroke-linecap:butt;stroke-linejoin:round;stroke-miterlimit:100;stroke-dasharray:none;paint-order:markers stroke fill"
         id="path79" />
    </g>
  </g>
</svg>
